<svg xmlns="http://www.w3.org/2000/svg" xmlns:xlink="http://www.w3.org/1999/xlink" viewBox="0 0 598.1 343.4"><defs><clipPath id="a"><rect y="-9.7" width="598.1" height="365.9" style="fill:none"/></clipPath><clipPath id="b"><path d="M3.4,170.9l97.4,157.6s.9,2.5,2.6,2.5c8.1.2,28-4.1,54.3-20.4s46.7-38.1,39.9-42L100.3,111.1Z" style="fill:none"/></clipPath></defs><title>T-fuel</title><g style="clip-path:url(#a)"><path d="M264.9,283.4s13.3,13.1,16.9,14.4,10.7,2.2,8.2-14.4-7.3-24.4-16.4-22.1S264.9,283.4,264.9,283.4Z" style="fill:#fff"/><path d="M285.3,300.5a12,12,0,0,1-4.2-.9c-3.8-1.3-15.3-12.5-17.6-14.8a1.7,1.7,0,0,1-.6-1.4,52.6,52.6,0,0,1,1-10.5c1.6-7.8,4.7-12.3,9.2-13.5a11.4,11.4,0,0,1,9.3,1.2c4.6,3.1,7.7,10.2,9.5,22.5,1.3,8.3.5,13.5-2.4,15.9A6.4,6.4,0,0,1,285.3,300.5Zm-18.4-17.9c5.4,5.2,13.4,12.5,15.5,13.3s3.7.8,4.5,0,2.5-3.1,1.1-12.2c-1.7-10.9-4.2-17.4-7.8-19.8a7.4,7.4,0,0,0-6.1-.6C268.3,264.8,267,277.3,266.9,282.6Z" style="fill:#0a1531"/><path d="M275.8,215.9s97.2,37.4,125.4-40.8S442.5,55.7,488.1,30.7C547-1.5,621.4,9.3,665.8,53.5c37,36.7-7.8,43.7-7.8,43.7S571.5,23,508.2,54.9c-35.1,17.6-60.8,75.7-74.4,128.9-13,51.2-106.9,115.1-182.4,49.9Z" style="fill:#fff"/><path d="M561.7,12.1c39,0,77.1,14.5,104.1,41.4,37,36.7-7.8,43.7-7.8,43.7S599.4,46.9,543.4,46.9a76.5,76.5,0,0,0-35.2,8c-35.1,17.6-60.8,75.7-74.4,128.9-9,35.7-57.4,77.5-111.4,77.5-23.5,0-48.1-7.9-71-27.6l24.4-17.8s23.2,8.9,50.2,8.9,60.8-9.7,75.2-49.7C429.3,97,442.5,55.7,488.1,30.7a153.6,153.6,0,0,1,73.6-18.6m0-4a157.9,157.9,0,0,0-75.5,19.1c-45,24.7-59.2,64.4-85.1,136.4l-3.7,10.2c-6.2,17.2-16.5,29.9-30.5,37.7-11.3,6.2-25,9.3-40.9,9.3a153.6,153.6,0,0,1-48.8-8.6,3.2,3.2,0,0,0-1.4-.3,4.3,4.3,0,0,0-2.4.8l-24.3,17.7a4.2,4.2,0,0,0-1.7,3.1,4.3,4.3,0,0,0,1.4,3.2c22,19,46.8,28.6,73.6,28.6s52.4-9.3,75-26.1c20.5-15.4,35.6-35.7,40.3-54.4,5.1-20.2,14.3-49.9,28.7-76.9,13.4-25,28.1-41.7,43.6-49.5a73.2,73.2,0,0,1,33.4-7.5c28,0,56.8,13.3,76.1,24.5a273.9,273.9,0,0,1,35.9,24.8,4,4,0,0,0,2.6,1h.6c.8-.1,20.6-3.4,25-17,3-9.4-2-20.6-14.9-33.5-27.3-27-66.3-42.5-107-42.5Z" style="fill:#0a1531"/><path d="M280.7,268.9s9.2,9.2,14.1,17.6c6,10.3,21,7.7,20.4-9.4-.4-14.6,1.2-29-6.7-32.4s-20.1-6.4-24.8-.5c0,0-12.4,5.8-12.3,9.7S280.7,268.9,280.7,268.9Z" style="fill:#fff"/><path d="M304.4,294.6c-4.4,0-8.7-2.6-11.3-7-4.7-8.2-13.7-17.2-13.8-17.2l-.2-.2c-1.6-1.9-9.5-11.8-9.7-16.2s8.8-9.4,13-11.5c5.4-5.9,17.4-3.7,26.9.4,7.7,3.3,7.7,13.9,7.8,26.3,0,2.6.1,5.2.1,7.8.4,10.5-4.7,15.7-9.6,17.1A11.9,11.9,0,0,1,304.4,294.6Zm-22.2-27c.9.9,9.5,9.7,14.3,17.9,2.3,3.9,6.3,5.8,10,4.8s7-5,6.7-13.2c0-2.6-.1-5.3-.1-7.9-.1-10.9-.1-20.4-5.4-22.7-8.6-3.7-18.9-5.4-22.5-1.1a2,2,0,0,1-.7.6c-5.6,2.6-11,6.5-11.1,7.9S278,262.5,282.2,267.6Z" style="fill:#0a1531"/><path d="M270,203.8s6.9,6.2,5.8,12.1-16.9,18.2-20.7,15.7-6-16.5,0-34.5S270,203.8,270,203.8Z" style="fill:#fff"/><path d="M260.3,190.5c4.9,0,9.7,13.3,9.7,13.3s6.9,6.2,5.8,12.1-14.1,16-19.3,16a2.9,2.9,0,0,1-1.4-.3c-3.7-2.6-6-16.5,0-34.5,1.6-4.8,3.4-6.6,5.2-6.6m0-4h0c-5.9,0-8.2,7-9,9.3-5.7,17.4-5.1,34.5,1.6,39.1a6.1,6.1,0,0,0,3.6,1c7.3,0,21.9-12,23.2-19.2s-4.1-13-6.3-15.1c-1.9-5.2-6.5-15.1-13.1-15.1Z" style="fill:#0a1531"/><path d="M190.7,54s12.1-4.5,28.8,13.5,53.7,118.1,54.1,126.2-14.3,23.1-24.1,21.2S158.2,116.6,158,93.4,190.7,54,190.7,54Z" style="fill:#fff"/><path d="M194.4,53.5c4.8,0,13.9,2,25.1,14,16.7,18,53.7,118.1,54.1,126.2S261,215,251.3,215h-1.8c-9.8-1.9-91.3-98.3-91.5-121.5S190.7,54,190.7,54a11.3,11.3,0,0,1,3.7-.5m0-4h0a17.6,17.6,0,0,0-5.1.7l-.4.2c-1.4.7-35.2,17.7-34.9,43.1.1,14.9,27,50.9,43,71.1,10.5,13.2,21.9,26.5,31.2,36.5,15.6,16.8,18.9,17.4,20.5,17.7a11.4,11.4,0,0,0,2.6.2c5.8,0,12.8-3.7,18.7-9.9,2.4-2.6,8-9.2,7.6-15.7-.5-9.5-38.1-110.1-55.2-128.6-11.7-12.7-21.7-15.3-28-15.3Z" style="fill:#0a1531"/><ellipse cx="69.5" cy="70.6" rx="6" ry="13.1" transform="translate(-2.4 2.5) rotate(-2)" style="fill:#fbfbfb"/><path d="M69.8,85.2c-4.2,0-7.6-6.1-7.9-14.3-.2-5.6,1.2-10.7,3.5-13.2A5.1,5.1,0,0,1,68.9,56h.2c4.2,0,7.6,6.1,7.9,14.3.2,5.6-1.2,10.7-3.5,13.2A5.1,5.1,0,0,1,70,85.2ZM69.1,59H69a1.9,1.9,0,0,0-1.4.8c-1.4,1.5-2.8,5.5-2.7,10.9.3,7.3,3,11.6,5,11.5a1.9,1.9,0,0,0,1.4-.8c1.4-1.5,2.9-5.5,2.7-11C73.7,63.3,71,59,69.1,59Z" style="fill:#0a1430"/><ellipse cx="76.4" cy="70.4" rx="9.5" ry="19.3" transform="translate(-2.4 2.7) rotate(-2)" style="fill:#fbfbfb"/><path d="M76.9,91.2c-6.1,0-11.1-8.9-11.5-20.5-.3-7.8,1.7-14.9,5.1-18.6a7.7,7.7,0,0,1,5.2-2.6h.2C82,49.5,87,58.4,87.4,70h0c.3,7.8-1.7,14.9-5.1,18.6a7.7,7.7,0,0,1-5.2,2.6Zm-1-38.7h-.1a4.6,4.6,0,0,0-3.1,1.7c-2.9,3-4.6,9.5-4.3,16.4.3,8.5,3.9,17.7,8.6,17.6a4.6,4.6,0,0,0,3.1-1.7c2.9-3,4.6-9.5,4.3-16.4S80.6,52.5,75.9,52.5Z" style="fill:#0a1430"/><path d="M116.4,138.1c-3.3,2.6,1.6,18.7,1.8,30.4,1,.3,5.3.3,6.8,2.6-7.1.4-9.3,3.5-10.4,5.2-8.2,11.6-26.4,40.5-25.9,43.5s6.2,9,10.1,7.3,41.5-25.7,41.7-58.3S140.2,119.5,116.4,138.1Z" style="fill:#fff"/><path d="M131.7,130.4c8.7,0,8.9,15.1,8.8,38.4-.2,32.6-37.8,56.6-41.7,58.3a4.1,4.1,0,0,1-1.6.3c-3.7,0-8-4.7-8.5-7.6s17.7-31.9,25.9-43.5c1.1-1.7,3.3-4.8,10.4-5.2-1.5-2.3-5.8-2.3-6.8-2.6-.2-11.7-5.1-27.8-1.8-30.4,6.8-5.3,11.7-7.7,15.3-7.7m0-4c-4.6,0-10.2,2.7-17.7,8.6-3.9,3-2.9,9.5-1.4,19.4a92.2,92.2,0,0,1,1.6,14.2,4.8,4.8,0,0,0,.5,1.7,17.2,17.2,0,0,0-3.4,3.6c-4.4,6.3-11.1,16.7-16.3,25.3-10.9,17.7-10.6,19.6-10.3,21.2.8,4.9,6.9,11,12.5,11a8.7,8.7,0,0,0,3.2-.6c2.9-1.3,13.8-8.4,23.5-18.5,13.4-13.9,20.5-28.9,20.6-43.5.1-21.5-.1-33.9-5.8-39.5a9.5,9.5,0,0,0-7-2.9Z" style="fill:#0a1531"/><path d="M173.1,111.1s31.5-31.6,12.4-65.9-75.3-34.5-98-8.4c-14.9,17-25.9,61.9,20.9,90.6,0,0,3.9,6.8,5,11.3s25.2,85.1,56.5,112.2c24.4,21.2,32.9,29.2,36.4,31.2a60.1,60.1,0,0,0,34.4,7.5c13.5-1.1,23.4-2,28.8-3.9,1.9-.8,3.5-8.2,1-11.1s-22.1-1.9-35.6-7.9c-10.1-4.4-29-20.5-35.3-27.5,11.9,6.5,29.6,20.4,42,24.3s18.4,4.7,33.2,5.4,14.9-3.6,16-10.3,2.3-13.5-14.6-12.9-17.7-18.4-20.3-21.8a47,47,0,0,1-15.5,5.3s13.5-4.3,14.6-11.7C258.5,192.7,233.9,142.1,173.1,111.1Z" style="fill:#fff"/><path d="M133.7,18.2c20.7,0,41.5,8.6,51.8,27,19.1,34.3-12.4,65.9-12.4,65.9,60.8,31,85.4,81.6,81.9,106.4-1.1,7.4-14.6,11.7-14.6,11.7a47,47,0,0,0,15.5-5.3c2.5,3.4,3.3,21.8,19.5,21.8H278c15,0,13.8,6.7,12.8,13S288.5,269,277.4,269h-2.6c-14.8-.7-20.8-1.6-33.2-5.4s-30.1-17.8-42-24.3c6.3,7,25.2,23.1,35.3,27.5,13.5,6,32.6,4.3,35.6,7.9s.9,10.3-1,11.1c-5.4,1.9-15.3,2.8-28.8,3.9l-5.2.2a59.5,59.5,0,0,1-29.2-7.7c-3.5-2-12-10-36.4-31.2-31.3-27.1-55.4-107.7-56.5-112.2s-5-11.3-5-11.3C61.6,98.7,72.6,53.8,87.5,36.8c10.6-12.2,28.3-18.6,46.2-18.6m0-4c-19.9,0-38.3,7.4-49.2,19.9-8.1,9.3-16.3,27.6-13.1,48.7,2,13.2,9.6,32.1,34,47.5a49.3,49.3,0,0,1,4.1,9.3c.2.9,24.5,85.5,57.8,114.3l20.2,17.7c10,8.8,14.2,12.5,16.9,14a64,64,0,0,0,31.1,8.2l5.5-.2c14.8-1.3,24.1-2.1,29.8-4.2,2.1-.7,3.6-2.8,4.4-5.9s1-7.5-.9-10.6h3.1c14,0,16.2-6.5,17.3-13.7v-.2c.6-3.9,1.4-8.8-1.9-12.7s-7.5-4.8-14.9-4.8h-2.6c-8.7,0-11.5-6.6-14-14.6-.8-2.5-1.3-4.3-2.3-5.6l-.9-.8a8.4,8.4,0,0,0,.7-2.6c2.1-14.5-4.4-34.6-17.4-53.7-10.4-15.3-29.4-36.9-62-54.5a82.8,82.8,0,0,0,10.6-17.2c7.8-17.2,7.4-34.3-1.1-49.4-10.1-18.2-30.8-29.1-55.3-29.1Z" style="fill:#0a1531"/><ellipse cx="120.3" cy="66.1" rx="38.4" ry="45.6" transform="translate(48.2 182.9) rotate(-87.1)" style="fill:#0a1531"/><ellipse cx="88.3" cy="54.6" rx="9.7" ry="5.9" transform="translate(-6 98) rotate(-56.5)" style="fill:#fbfbfb"/><ellipse cx="84" cy="70.1" rx="2.5" ry="2.1" transform="translate(-8.9 127.9) rotate(-71.7)" style="fill:#fbfbfb"/><path d="M108.7,130.1s28.4,3.2,67.5-19c0,0,3.6.8,2.4,2.7-5.5,9.7-58,24.5-66.7,19.6C107.5,131,108.7,130.1,108.7,130.1Z" style="fill:#fff"/><path d="M176.2,111.1s3.6.8,2.4,2.7c-4.7,8.4-44.6,20.6-61,20.6a12.1,12.1,0,0,1-5.7-1c-4.4-2.4-3.2-3.3-3.2-3.3a32.4,32.4,0,0,0,4.1.2c9.1,0,33-1.9,63.4-19.2m0-4a4.6,4.6,0,0,0-2,.5c-29.6,16.9-52.8,18.7-61.4,18.7h-4.1a4,4,0,0,0-2.3.8,4.3,4.3,0,0,0-1.8,3.8c.1,2.9,2.8,4.8,5.4,6.2s4.2,1.5,7.6,1.5c8.2,0,22.4-2.9,36.1-7.4,20-6.5,26.5-11.8,28.4-15.2a5.1,5.1,0,0,0,.3-4.8,7.2,7.2,0,0,0-5.3-3.8Z" style="fill:#0a1531"/><ellipse cx="185" cy="72.1" rx="21.8" ry="10.7" transform="translate(88.2 245.6) rotate(-82.1)" style="fill:#fbfbfb"/><path d="M182.8,95.8h-1c-3.6-.5-6.6-3.6-8.3-8.7a38.8,38.8,0,0,1-1.1-16.6c1.9-13.2,8.8-22.8,15.9-21.8a8.5,8.5,0,0,1,5.7,3.6c3.5,4.6,4.9,12.9,3.7,21.7C195.9,86.5,189.5,95.8,182.8,95.8Zm4.5-43.3c-4,0-9.4,7.3-10.9,18.5a35,35,0,0,0,.9,14.7c1.2,3.6,3,5.8,5,6,4.1.6,9.8-6.8,11.4-18.4,1-7.6-.1-15-2.9-18.7a4.4,4.4,0,0,0-3.1-2Z" style="fill:#0a1430"/><ellipse cx="193.8" cy="73.4" rx="14.8" ry="7.3" transform="translate(94.6 255.3) rotate(-82.1)" style="fill:#fbfbfb"/><path d="M192.3,90.1h-.7a6.3,6.3,0,0,1-4.3-2.7c-2.5-3.2-3.5-9.1-2.7-15.2h0c1.3-9.5,6.3-16.1,11.5-15.4,2.8.4,4.9,2.6,6.2,6.4a26.8,26.8,0,0,1,.8,11.5C201.8,83.6,197.3,90.1,192.3,90.1Zm3.1-29.4c-2.2,0-5.7,4.3-6.8,11.9h0c-.7,5.1,0,9.9,1.8,12.3.6.7,1.1,1.1,1.7,1.1,2.2.4,5.9-4.1,7-11.9a22.3,22.3,0,0,0-.6-9.8c-.7-2.1-1.8-3.5-2.9-3.6Z" style="fill:#0a1430"/><path d="M3.4,170.9,103.8,333.3l1.5-.9c4.4,7.1,29.3-.3,55.6-16.6s44.2-35.2,39.8-42.3L100.3,111.1Z" style="fill:#fff"/><path d="M100.3,111.1,200.7,273.5c4.4,7.1-13.4,26.1-39.8,42.3-19.5,12.1-38.3,19.3-48.4,19.3-3.6,0-6.1-.9-7.2-2.7l-1.5.9L3.4,170.9l96.9-59.8m0-4a3.7,3.7,0,0,0-2.1.6L1.3,167.5A4.5,4.5,0,0,0-.5,170a4,4,0,0,0,.5,3L100.4,335.4a3.8,3.8,0,0,0,3.4,1.9h.8a15.2,15.2,0,0,0,7.9,1.8c11.3,0,30.7-7.6,50.6-19.9,13-8,24.4-17,32.1-25.2,9.2-9.8,12.1-17.4,8.9-22.6L103.7,109a3.9,3.9,0,0,0-3.4-1.9Z" style="fill:#0a1531"/><path d="M89.6,110l-33-10c-2-3.3-13.4.1-25.4,7.6S11,123.7,13,126.9l-5.8,34c-2.2,3.7-2.8,6.8-1.6,8.8,4.3,6.9,28.5-.3,54-16.1s42.9-34.2,38.6-41.1C96.9,110.5,93.9,109.7,89.6,110Z" style="fill:#fff"/><path d="M53.3,98.8c1.6,0,2.8.4,3.3,1.2l33,10h1.6c3.4,0,5.9.8,7,2.6,4.3,6.9-13,25.3-38.6,41.1-18.9,11.8-37.1,18.7-47,18.7-3.4,0-5.9-.8-7-2.6s-.6-5.1,1.6-8.8l5.8-34c-2-3.2,6.1-11.9,18.2-19.3,8.9-5.5,17.5-8.8,22.1-8.8m0-4c-5.6,0-14.9,3.6-24.2,9.4-4,2.4-22.4,14.4-20.2,23.1L3.3,159.6c-2.7,4.9-3,9-1.1,12.2s5.4,4.5,10.4,4.5c11.1,0,29.9-7.3,49.2-19.3,12.6-7.8,23.7-16.5,31.2-24.5s11.8-16.9,8.6-22.1c-1.9-3-5.4-4.5-10.4-4.5H90.1L58.8,96.5c-1.1-1-2.8-1.7-5.5-1.7Z" style="fill:#0a1531"/><ellipse cx="35.6" cy="113" rx="25.6" ry="6.9" transform="translate(-54.1 35.6) rotate(-31.7)" style="fill:#fff"/><path d="M54.1,98.3c1.6,0,2.7.4,3.2,1.2,2,3.3-6.1,12-18.1,19.4-8.9,5.5-17.5,8.8-22.1,8.8-1.6,0-2.8-.4-3.3-1.2-2-3.3,6.1-12,18.1-19.4,8.9-5.5,17.5-8.8,22.2-8.8m0-4h0c-5.6,0-14.9,3.6-24.3,9.4-4.2,2.6-24.9,16-19.4,24.9.9,1.4,2.7,3.1,6.7,3.1,5.5,0,14.8-3.6,24.2-9.4,4.2-2.6,24.9-16,19.4-24.9-.8-1.4-2.7-3.1-6.6-3.1Z" style="fill:#0a1531"/><path d="M91.2,108.7c3.9,6.4-12.1,23.5-35.8,38.1S9.3,168.1,5.3,161.7" style="fill:#fff"/><path d="M11.8,166.1c-4,0-6.8-1.1-8.2-3.3a2,2,0,0,1,.7-2.8,1.9,1.9,0,0,1,2.7.7c1,1.6,5.7,2.4,15.4-.5s20.7-8.1,32-15.1,21.2-14.7,27.8-21.8,8.3-12,7.3-13.6a1.9,1.9,0,0,1,.6-2.7,2.1,2.1,0,0,1,2.8.6c2.4,4-.2,10.4-7.8,18.4s-17,15.3-28.6,22.5-23.3,12.7-33,15.6A40.8,40.8,0,0,1,11.8,166.1Z" style="fill:#0a1531"/><path d="M183,109.7s-18.8,16.7-7.1,37c0,0-5.4-24.8,24.7-38.4C193.8,107.6,183,109.7,183,109.7Z" style="fill:#fff"/><path d="M175.9,148.2a1.6,1.6,0,0,1-1.3-.8c-12.1-21.1,7.2-38.7,7.4-38.8l.7-.4c.5-.1,11.2-2.1,18.1-1.4a1.5,1.5,0,0,1,.4,2.8c-28.6,13-24,35.8-23.8,36.8a1.5,1.5,0,0,1-.9,1.7Zm7.8-37.1a38.9,38.9,0,0,0-7.3,10.2,25.5,25.5,0,0,0-2.1,17.4c.8-8,4.8-20.1,20.1-29A89,89,0,0,0,183.7,111.1Z" style="fill:#0a1531"/><path d="M201.3,188.1c33.7,5.9,50.1-12.5,50.1-12.5L246,164.2c-18.8,21.5-43,14.2-43,14.2Z" style="fill:#fff"/><path d="M214.4,191.3a71.6,71.6,0,0,1-13.4-1.2,2,2,0,0,1-1.6-2.3l1.6-9.7a1.9,1.9,0,0,1,.9-1.4,2.3,2.3,0,0,1,1.6-.2c1,.3,23.3,6.6,41-13.7a2,2,0,0,1,1.8-.6,1.8,1.8,0,0,1,1.5,1.1l5.4,11.4a1.8,1.8,0,0,1-.3,2.2C252.3,177.6,239.7,191.3,214.4,191.3Zm-10.8-4.8c26.7,4,41.7-7.9,45.4-11.4l-3.5-7.4a45.3,45.3,0,0,1-40.9,13.1Z" style="fill:#0a1531"/><g style="clip-path:url(#b)"><path d="M15.3,227.4S46,187.2,72.7,174.7c44.7-20.8,81.8-17.2,87.8-13.9s65.9,118.9,65.9,118.9L100.5,357.5Z" style="fill:#f0b313;opacity:0.8"/><path d="M3.4,231.9S-.9,191,29.8,186.3s46,13.5,72.6-3.3,64.5-26.6,64.5-26.6l27.6,18.3,58.9,97.4L108.2,375.6Z" style="fill:#eb677c;opacity:0.5"/><path d="M156.4,148.1c-13.5-11.4-44.3-7.6-55.9,17.9-9.8,21.4-26.9,34.1-43.2,37.3s-39.7-1.7-47.4,10,5.7-26.6,36.7,66.3,68.2,81.1,68.2,81.1l126.7-94.6Z" style="fill:#eb677c"/></g><path d="M57.7,225.3l24.5-14.5,10.1,17-5,3L80.9,220l-4.5,2.7,6,10.1-5,2.9-6-10-9.9,5.9Z" style="fill:#0a1531"/><path d="M73.6,246.6c.7-3,2.8-5.4,6.3-7.5L94,230.7l3.7,6.2-14.4,8.6a6.7,6.7,0,0,0-3.3,3.6,5.6,5.6,0,0,0,4,6.8,7.8,7.8,0,0,0,4.8-1.2l14.4-8.6,3.7,6.3-14.2,8.4c-3.4,2-6.6,2.7-9.5,1.9s-5.4-3-7.5-6.5S72.9,249.5,73.6,246.6Z" style="fill:#0a1531"/><path d="M85,271.2l24.5-14.5,10.3,17.4-4.9,2.9-6.7-11.2-4.6,2.8,6.2,10.5-4.9,2.9-6.2-10.5-5.1,3,6.6,11.2-4.9,2.9Z" style="fill:#0a1531"/><path d="M97.3,291.9l24.5-14.5,3.8,6.4-19.4,11.5,6.2,10.4-5.2,3.1Z" style="fill:#0a1531"/><polygon points="45.7 191.8 52.8 195.7 55.3 194.2 55 194.1 50 191.2 50 191.2 47 189.5 49.3 185.4 47.8 182.8 40.4 196.1 43.3 196 45.7 191.8" style="fill:#0a1531"/><polygon points="64 182 48.8 182.2 50.3 184.7 55.2 184.7 55.3 192.8 56.5 193.5 57.8 192.8 57.7 184.7 62.6 184.6 64 182" style="fill:#0a1531"/><polygon points="67.4 201 60.4 197.1 57.9 198.6 63.4 201.7 63.6 201.8 63.6 201.8 66.2 203.3 63.8 207.5 65.3 210 72.7 196.8 69.8 196.9 67.4 201" style="fill:#0a1531"/><polygon points="47.1 203.5 67.3 191.5 69.8 195.7 72.7 195.6 65.1 182.7 63.6 185.3 66 189.3 59.1 193.4 52.7 197.2 45.8 201.3 43.4 197.2 40.5 197.3 48.1 210.2 49.6 207.6 47.1 203.5" style="fill:#0a1531"/><polygon points="58 208.1 57.9 200 56.6 199.3 55.3 200.1 55.4 208.1 50.6 208.2 49.2 210.8 64.3 210.6 62.8 208.1 58 208.1" style="fill:#0a1531"/><path d="M148.4,216s-9.7,1-13.5,5.2.3,7.7,3.6,7.5-3.7,4.6-4.7,9.8,7.9,11.5,13.5,8.7,12.2-10,13.9-14.2S169.8,216.5,148.4,216Z" style="fill:#fff"/><path d="M144.2,249.9a13.8,13.8,0,0,1-7.9-2.8c-3.3-2.5-5-5.9-4.4-8.9s2.7-5.8,4.3-7.8a6.9,6.9,0,0,1-4.3-3.5c-1-2.2-.5-4.8,1.5-7.1,4.2-4.6,13.7-5.7,14.8-5.8h.2c8.3.2,13.5,2.1,15.8,5.8s.5,9.9-.8,12.9a10.4,10.4,0,0,1-.4,1c-1.8,4.5-8.7,12.2-14.8,15.3A9,9,0,0,1,144.2,249.9Zm-5.6-23.2a2.6,2.6,0,0,1,2.5,1.3c.8,1.6-.3,3-1.8,4.8s-3.1,4-3.5,6.1.9,3.4,2.9,5,5.3,2.6,7.7,1.5c5.1-2.6,11.4-9.4,12.9-13.2l.5-1.1c1-2.4,2.8-6.5,1.1-9.2s-5.9-3.8-12.4-3.9c-2.6.3-9.5,1.6-12.1,4.5-.9,1-1.2,2-.9,2.7a3.2,3.2,0,0,0,2.9,1.5Z" style="fill:#0a1531"/><path d="M179.2,136.1c-2.9,3,.2,20.7.4,32.4,1,.3,5.3.3,6.7,2.6-7.1.4-9.2,3.5-10.4,5.2-8.1,11.6-26.4,40.5-25.9,43.5s6.2,9,10.2,7.3,41.5-25.7,41.6-58.3S188.8,125.9,179.2,136.1Z" style="fill:#fff"/><path d="M186.7,132.3c7.8,0,15.2,11.9,15.1,36.5-.1,32.6-37.7,56.6-41.6,58.3a4.5,4.5,0,0,1-1.6.3c-3.7,0-8.1-4.7-8.6-7.6s17.8-31.9,25.9-43.5c1.2-1.7,3.3-4.8,10.4-5.2-1.4-2.3-5.7-2.3-6.7-2.6-.2-11.7-3.3-29.4-.4-32.4s4.9-3.8,7.5-3.8m0-4c-3.7,0-7.3,1.7-10.4,5s-2.6,10-1.5,22.8c.3,4.3.7,8.8.8,12.5a4.7,4.7,0,0,0,.4,1.7,19,19,0,0,0-3.3,3.6c-4.4,6.3-11.1,16.7-16.4,25.3-10.8,17.7-10.5,19.6-10.2,21.2.8,4.9,6.8,11,12.5,11a7.8,7.8,0,0,0,3.1-.6c2.9-1.3,13.8-8.4,23.6-18.5,13.4-13.9,20.5-28.9,20.5-43.5.1-17-3.4-29.8-9.7-36.2a13.2,13.2,0,0,0-9.4-4.3Z" style="fill:#0a1531"/></g><path d="M105.9,334.6c-3.7,0-6.1-1-7.4-3a2.1,2.1,0,0,1,.6-2.8,2,2,0,0,1,2.8.7c.8,1.2,5.3,2.3,17.3-1.8s23.9-10.1,37.1-18.3,24.9-17,32.9-25,10.1-13.5,9.3-14.7a2,2,0,0,1,.7-2.8,1.9,1.9,0,0,1,2.7.7c2.5,4-.8,10.7-9.9,19.7s-20.1,17.2-33.6,25.5-26.9,15-37.9,18.7C114.4,333.6,109.5,334.6,105.9,334.6Z" style="fill:#0a1531"/></svg>